<mxfile host="app.diagrams.net" modified="2023-03-30T09:45:08.046Z" agent="Mozilla/5.0 (Windows NT 10.0; Win64; x64) AppleWebKit/537.36 (KHTML, like Gecko) Chrome/111.0.0.0 Safari/537.36" etag="ghDg9ZUiHeYYyxTP5nY2" version="21.1.1" type="device">
  <diagram name="Page-1" id="xbSKTqBf5pUAqZdmoA25">
    <mxGraphModel dx="731" dy="1718" grid="1" gridSize="10" guides="1" tooltips="1" connect="1" arrows="1" fold="1" page="1" pageScale="1" pageWidth="850" pageHeight="1100" math="0" shadow="0">
      <root>
        <mxCell id="0" />
        <mxCell id="1" parent="0" />
        <mxCell id="XoFY7Ahva4gUg5IXjVFd-1" value="" style="edgeStyle=orthogonalEdgeStyle;rounded=0;orthogonalLoop=1;jettySize=auto;html=1;" edge="1" parent="1" source="XoFY7Ahva4gUg5IXjVFd-2" target="XoFY7Ahva4gUg5IXjVFd-4">
          <mxGeometry relative="1" as="geometry" />
        </mxCell>
        <mxCell id="XoFY7Ahva4gUg5IXjVFd-2" value="начало" style="rounded=1;whiteSpace=wrap;html=1;arcSize=50;" vertex="1" parent="1">
          <mxGeometry x="80" y="20" width="200" height="60" as="geometry" />
        </mxCell>
        <mxCell id="XoFY7Ahva4gUg5IXjVFd-12" value="" style="edgeStyle=orthogonalEdgeStyle;rounded=0;orthogonalLoop=1;jettySize=auto;html=1;" edge="1" parent="1" source="XoFY7Ahva4gUg5IXjVFd-4" target="XoFY7Ahva4gUg5IXjVFd-11">
          <mxGeometry relative="1" as="geometry" />
        </mxCell>
        <mxCell id="XoFY7Ahva4gUg5IXjVFd-4" value="&lt;div&gt;int kolv;&lt;/div&gt;&lt;div&gt;	int k;&lt;/div&gt;" style="whiteSpace=wrap;html=1;" vertex="1" parent="1">
          <mxGeometry x="81.25" y="110" width="200" height="40" as="geometry" />
        </mxCell>
        <mxCell id="XoFY7Ahva4gUg5IXjVFd-5" value="main()" style="strokeWidth=2;html=1;shape=mxgraph.flowchart.annotation_2;align=left;labelPosition=right;pointerEvents=1;" vertex="1" parent="1">
          <mxGeometry x="280" width="50" height="100" as="geometry" />
        </mxCell>
        <mxCell id="XoFY7Ahva4gUg5IXjVFd-14" value="" style="edgeStyle=orthogonalEdgeStyle;rounded=0;orthogonalLoop=1;jettySize=auto;html=1;" edge="1" parent="1" source="XoFY7Ahva4gUg5IXjVFd-11" target="XoFY7Ahva4gUg5IXjVFd-13">
          <mxGeometry relative="1" as="geometry" />
        </mxCell>
        <mxCell id="XoFY7Ahva4gUg5IXjVFd-11" value="&lt;div&gt;cout &amp;lt;&amp;lt; &quot;Input number&amp;nbsp;&lt;/div&gt;&lt;div&gt;of members: &quot;;&lt;/div&gt;&lt;div&gt;	cin &amp;gt;&amp;gt; kolv;&lt;/div&gt;" style="shape=parallelogram;perimeter=parallelogramPerimeter;whiteSpace=wrap;html=1;fixedSize=1;" vertex="1" parent="1">
          <mxGeometry x="81.25" y="190" width="200" height="60" as="geometry" />
        </mxCell>
        <mxCell id="XoFY7Ahva4gUg5IXjVFd-17" value="" style="edgeStyle=orthogonalEdgeStyle;rounded=0;orthogonalLoop=1;jettySize=auto;html=1;" edge="1" parent="1" source="XoFY7Ahva4gUg5IXjVFd-13" target="XoFY7Ahva4gUg5IXjVFd-15">
          <mxGeometry relative="1" as="geometry" />
        </mxCell>
        <mxCell id="XoFY7Ahva4gUg5IXjVFd-13" value="numbers* g = zapoln(kolv);" style="whiteSpace=wrap;html=1;" vertex="1" parent="1">
          <mxGeometry x="81.25" y="300" width="200" height="40" as="geometry" />
        </mxCell>
        <mxCell id="XoFY7Ahva4gUg5IXjVFd-19" value="" style="edgeStyle=orthogonalEdgeStyle;rounded=0;orthogonalLoop=1;jettySize=auto;html=1;" edge="1" parent="1" source="XoFY7Ahva4gUg5IXjVFd-15" target="XoFY7Ahva4gUg5IXjVFd-18">
          <mxGeometry relative="1" as="geometry" />
        </mxCell>
        <mxCell id="XoFY7Ahva4gUg5IXjVFd-15" value="&lt;div&gt;cout &amp;lt;&amp;lt; &quot;Input k: &quot;;&lt;/div&gt;&lt;div&gt;	cin &amp;gt;&amp;gt; k;&lt;/div&gt;&lt;div&gt;&lt;span style=&quot;&quot;&gt;	&lt;/span&gt;cout &amp;lt;&amp;lt; &quot;The last one leaved&amp;nbsp;&lt;span style=&quot;background-color: initial;&quot;&gt;is: &quot;&amp;nbsp;&lt;/span&gt;&lt;/div&gt;&lt;div&gt;&lt;span style=&quot;background-color: initial;&quot;&gt;&amp;lt;&amp;lt; circle(g, k, kolv) &amp;lt;&amp;lt; endl;&lt;/span&gt;&lt;/div&gt;" style="shape=parallelogram;perimeter=parallelogramPerimeter;whiteSpace=wrap;html=1;fixedSize=1;" vertex="1" parent="1">
          <mxGeometry x="81.25" y="380" width="200" height="70" as="geometry" />
        </mxCell>
        <mxCell id="XoFY7Ahva4gUg5IXjVFd-18" value="конец" style="rounded=1;whiteSpace=wrap;html=1;arcSize=50;" vertex="1" parent="1">
          <mxGeometry x="81.25" y="490" width="200" height="60" as="geometry" />
        </mxCell>
        <mxCell id="XoFY7Ahva4gUg5IXjVFd-20" value="" style="edgeStyle=orthogonalEdgeStyle;rounded=0;orthogonalLoop=1;jettySize=auto;html=1;" edge="1" parent="1" source="XoFY7Ahva4gUg5IXjVFd-21" target="XoFY7Ahva4gUg5IXjVFd-22">
          <mxGeometry relative="1" as="geometry" />
        </mxCell>
        <mxCell id="XoFY7Ahva4gUg5IXjVFd-21" value="начало" style="rounded=1;whiteSpace=wrap;html=1;arcSize=50;" vertex="1" parent="1">
          <mxGeometry x="440" y="20" width="200" height="60" as="geometry" />
        </mxCell>
        <mxCell id="XoFY7Ahva4gUg5IXjVFd-29" value="" style="edgeStyle=orthogonalEdgeStyle;rounded=0;orthogonalLoop=1;jettySize=auto;html=1;" edge="1" parent="1" source="XoFY7Ahva4gUg5IXjVFd-22" target="XoFY7Ahva4gUg5IXjVFd-28">
          <mxGeometry relative="1" as="geometry" />
        </mxCell>
        <mxCell id="XoFY7Ahva4gUg5IXjVFd-22" value="&lt;div&gt;numbers* first = nullptr;&lt;/div&gt;&lt;div&gt;	numbers* Head;&lt;/div&gt;&lt;div&gt;&lt;span style=&quot;&quot;&gt;	&lt;/span&gt;numbers* nowiy;&lt;/div&gt;&lt;div&gt;&lt;span style=&quot;&quot;&gt;	&lt;/span&gt;char a[50];&lt;/div&gt;" style="whiteSpace=wrap;html=1;" vertex="1" parent="1">
          <mxGeometry x="441.25" y="110" width="200" height="70" as="geometry" />
        </mxCell>
        <mxCell id="XoFY7Ahva4gUg5IXjVFd-23" value="zapoln(int kolv)" style="strokeWidth=2;html=1;shape=mxgraph.flowchart.annotation_2;align=left;labelPosition=right;pointerEvents=1;" vertex="1" parent="1">
          <mxGeometry x="640" width="50" height="100" as="geometry" />
        </mxCell>
        <mxCell id="XoFY7Ahva4gUg5IXjVFd-31" value="" style="edgeStyle=orthogonalEdgeStyle;rounded=0;orthogonalLoop=1;jettySize=auto;html=1;" edge="1" parent="1" source="XoFY7Ahva4gUg5IXjVFd-28" target="XoFY7Ahva4gUg5IXjVFd-30">
          <mxGeometry relative="1" as="geometry" />
        </mxCell>
        <mxCell id="XoFY7Ahva4gUg5IXjVFd-58" style="edgeStyle=orthogonalEdgeStyle;rounded=0;orthogonalLoop=1;jettySize=auto;html=1;exitX=1;exitY=0.5;exitDx=0;exitDy=0;entryX=0.5;entryY=0;entryDx=0;entryDy=0;" edge="1" parent="1" source="XoFY7Ahva4gUg5IXjVFd-28" target="XoFY7Ahva4gUg5IXjVFd-56">
          <mxGeometry relative="1" as="geometry">
            <mxPoint x="740" y="1321.60009765625" as="targetPoint" />
            <Array as="points">
              <mxPoint x="750" y="260" />
              <mxPoint x="750" y="1310" />
              <mxPoint x="541" y="1310" />
            </Array>
          </mxGeometry>
        </mxCell>
        <mxCell id="XoFY7Ahva4gUg5IXjVFd-28" value="kolv &amp;gt; 0" style="rhombus;whiteSpace=wrap;html=1;" vertex="1" parent="1">
          <mxGeometry x="441.25" y="220" width="200" height="80" as="geometry" />
        </mxCell>
        <mxCell id="XoFY7Ahva4gUg5IXjVFd-36" value="" style="edgeStyle=orthogonalEdgeStyle;rounded=0;orthogonalLoop=1;jettySize=auto;html=1;" edge="1" parent="1" source="XoFY7Ahva4gUg5IXjVFd-30" target="XoFY7Ahva4gUg5IXjVFd-35">
          <mxGeometry relative="1" as="geometry" />
        </mxCell>
        <mxCell id="XoFY7Ahva4gUg5IXjVFd-30" value="&lt;div&gt;nowiy = new numbers;&lt;/div&gt;&lt;div&gt;		Head = nowiy;&lt;/div&gt;" style="whiteSpace=wrap;html=1;" vertex="1" parent="1">
          <mxGeometry x="441.25" y="330" width="200" height="70" as="geometry" />
        </mxCell>
        <mxCell id="XoFY7Ahva4gUg5IXjVFd-32" value="Да" style="text;html=1;align=center;verticalAlign=middle;resizable=0;points=[];autosize=1;strokeColor=none;fillColor=none;" vertex="1" parent="1">
          <mxGeometry x="550" y="295" width="40" height="30" as="geometry" />
        </mxCell>
        <mxCell id="XoFY7Ahva4gUg5IXjVFd-34" value="Нет" style="text;html=1;align=center;verticalAlign=middle;resizable=0;points=[];autosize=1;strokeColor=none;fillColor=none;" vertex="1" parent="1">
          <mxGeometry x="630" y="230" width="40" height="30" as="geometry" />
        </mxCell>
        <mxCell id="XoFY7Ahva4gUg5IXjVFd-38" value="" style="edgeStyle=orthogonalEdgeStyle;rounded=0;orthogonalLoop=1;jettySize=auto;html=1;" edge="1" parent="1" source="XoFY7Ahva4gUg5IXjVFd-35" target="XoFY7Ahva4gUg5IXjVFd-37">
          <mxGeometry relative="1" as="geometry" />
        </mxCell>
        <mxCell id="XoFY7Ahva4gUg5IXjVFd-39" style="edgeStyle=orthogonalEdgeStyle;rounded=0;orthogonalLoop=1;jettySize=auto;html=1;exitX=1;exitY=0.5;exitDx=0;exitDy=0;entryX=0.5;entryY=0;entryDx=0;entryDy=0;" edge="1" parent="1" source="XoFY7Ahva4gUg5IXjVFd-35" target="XoFY7Ahva4gUg5IXjVFd-54">
          <mxGeometry relative="1" as="geometry">
            <mxPoint x="720" y="1190" as="targetPoint" />
            <Array as="points">
              <mxPoint x="730" y="490" />
              <mxPoint x="730" y="1210" />
              <mxPoint x="541" y="1210" />
            </Array>
          </mxGeometry>
        </mxCell>
        <mxCell id="XoFY7Ahva4gUg5IXjVFd-35" value="int i = 0; i &amp;lt; kolv; i++" style="shape=hexagon;perimeter=hexagonPerimeter2;whiteSpace=wrap;html=1;fixedSize=1;" vertex="1" parent="1">
          <mxGeometry x="441.25" y="450" width="200" height="80" as="geometry" />
        </mxCell>
        <mxCell id="XoFY7Ahva4gUg5IXjVFd-41" value="" style="edgeStyle=orthogonalEdgeStyle;rounded=0;orthogonalLoop=1;jettySize=auto;html=1;" edge="1" parent="1" source="XoFY7Ahva4gUg5IXjVFd-37" target="XoFY7Ahva4gUg5IXjVFd-40">
          <mxGeometry relative="1" as="geometry" />
        </mxCell>
        <mxCell id="XoFY7Ahva4gUg5IXjVFd-37" value="&lt;div&gt;cout &amp;lt;&amp;lt; &quot;Input a memer: &quot;;&lt;/div&gt;&lt;div&gt;		cin.get();&lt;/div&gt;&lt;div&gt;&lt;span style=&quot;&quot;&gt;		&lt;/span&gt;cin.getline(a, 50);&lt;/div&gt;" style="shape=parallelogram;perimeter=parallelogramPerimeter;whiteSpace=wrap;html=1;fixedSize=1;" vertex="1" parent="1">
          <mxGeometry x="441.25" y="580" width="200" height="70" as="geometry" />
        </mxCell>
        <mxCell id="XoFY7Ahva4gUg5IXjVFd-43" value="" style="edgeStyle=orthogonalEdgeStyle;rounded=0;orthogonalLoop=1;jettySize=auto;html=1;" edge="1" parent="1" source="XoFY7Ahva4gUg5IXjVFd-40" target="XoFY7Ahva4gUg5IXjVFd-42">
          <mxGeometry relative="1" as="geometry" />
        </mxCell>
        <mxCell id="XoFY7Ahva4gUg5IXjVFd-52" style="edgeStyle=orthogonalEdgeStyle;rounded=0;orthogonalLoop=1;jettySize=auto;html=1;exitX=1;exitY=0.5;exitDx=0;exitDy=0;entryX=0.5;entryY=0;entryDx=0;entryDy=0;" edge="1" parent="1" source="XoFY7Ahva4gUg5IXjVFd-40" target="XoFY7Ahva4gUg5IXjVFd-51">
          <mxGeometry relative="1" as="geometry">
            <mxPoint x="690" y="1104.7998046875" as="targetPoint" />
            <Array as="points">
              <mxPoint x="700" y="740" />
              <mxPoint x="700" y="1100" />
              <mxPoint x="541" y="1100" />
            </Array>
          </mxGeometry>
        </mxCell>
        <mxCell id="XoFY7Ahva4gUg5IXjVFd-40" value="int y = 0; y &amp;lt; 50; y++" style="shape=hexagon;perimeter=hexagonPerimeter2;whiteSpace=wrap;html=1;fixedSize=1;" vertex="1" parent="1">
          <mxGeometry x="441.25" y="700" width="200" height="80" as="geometry" />
        </mxCell>
        <mxCell id="XoFY7Ahva4gUg5IXjVFd-45" value="" style="edgeStyle=orthogonalEdgeStyle;rounded=0;orthogonalLoop=1;jettySize=auto;html=1;" edge="1" parent="1" source="XoFY7Ahva4gUg5IXjVFd-42" target="XoFY7Ahva4gUg5IXjVFd-44">
          <mxGeometry relative="1" as="geometry" />
        </mxCell>
        <mxCell id="XoFY7Ahva4gUg5IXjVFd-47" style="edgeStyle=orthogonalEdgeStyle;rounded=0;orthogonalLoop=1;jettySize=auto;html=1;exitX=1;exitY=0.5;exitDx=0;exitDy=0;entryX=0.5;entryY=0;entryDx=0;entryDy=0;" edge="1" parent="1" source="XoFY7Ahva4gUg5IXjVFd-42" target="XoFY7Ahva4gUg5IXjVFd-48">
          <mxGeometry relative="1" as="geometry">
            <mxPoint x="676" y="980" as="targetPoint" />
            <Array as="points">
              <mxPoint x="660" y="850" />
              <mxPoint x="660" y="1000" />
              <mxPoint x="540" y="1000" />
            </Array>
          </mxGeometry>
        </mxCell>
        <mxCell id="XoFY7Ahva4gUg5IXjVFd-42" value="a[y] == &#39;\0&#39;" style="rhombus;whiteSpace=wrap;html=1;" vertex="1" parent="1">
          <mxGeometry x="441.25" y="810" width="200" height="80" as="geometry" />
        </mxCell>
        <mxCell id="XoFY7Ahva4gUg5IXjVFd-49" style="edgeStyle=orthogonalEdgeStyle;rounded=0;orthogonalLoop=1;jettySize=auto;html=1;exitX=0.5;exitY=1;exitDx=0;exitDy=0;" edge="1" parent="1" source="XoFY7Ahva4gUg5IXjVFd-44">
          <mxGeometry relative="1" as="geometry">
            <mxPoint x="541" y="1000" as="targetPoint" />
          </mxGeometry>
        </mxCell>
        <mxCell id="XoFY7Ahva4gUg5IXjVFd-44" value="nowiy-&amp;gt;num[y] = &#39;\0&#39;;" style="whiteSpace=wrap;html=1;" vertex="1" parent="1">
          <mxGeometry x="441.25" y="920" width="200" height="40" as="geometry" />
        </mxCell>
        <mxCell id="XoFY7Ahva4gUg5IXjVFd-46" value="Да" style="text;html=1;align=center;verticalAlign=middle;resizable=0;points=[];autosize=1;strokeColor=none;fillColor=none;" vertex="1" parent="1">
          <mxGeometry x="540" y="890" width="40" height="30" as="geometry" />
        </mxCell>
        <mxCell id="XoFY7Ahva4gUg5IXjVFd-50" style="edgeStyle=orthogonalEdgeStyle;rounded=0;orthogonalLoop=1;jettySize=auto;html=1;exitX=0.5;exitY=1;exitDx=0;exitDy=0;" edge="1" parent="1" source="XoFY7Ahva4gUg5IXjVFd-48">
          <mxGeometry relative="1" as="geometry">
            <mxPoint x="540" y="670" as="targetPoint" />
            <Array as="points">
              <mxPoint x="540" y="1080" />
              <mxPoint x="410" y="1080" />
              <mxPoint x="410" y="670" />
            </Array>
          </mxGeometry>
        </mxCell>
        <mxCell id="XoFY7Ahva4gUg5IXjVFd-48" value="nowiy-&amp;gt;num[y] = a[y];" style="whiteSpace=wrap;html=1;" vertex="1" parent="1">
          <mxGeometry x="440" y="1020" width="200" height="40" as="geometry" />
        </mxCell>
        <mxCell id="XoFY7Ahva4gUg5IXjVFd-55" style="edgeStyle=orthogonalEdgeStyle;rounded=0;orthogonalLoop=1;jettySize=auto;html=1;exitX=0.5;exitY=1;exitDx=0;exitDy=0;" edge="1" parent="1" source="XoFY7Ahva4gUg5IXjVFd-51">
          <mxGeometry relative="1" as="geometry">
            <mxPoint x="540" y="420" as="targetPoint" />
            <Array as="points">
              <mxPoint x="541" y="1190" />
              <mxPoint x="390" y="1190" />
              <mxPoint x="390" y="420" />
            </Array>
          </mxGeometry>
        </mxCell>
        <mxCell id="XoFY7Ahva4gUg5IXjVFd-51" value="&lt;div&gt;first = nowiy;&lt;/div&gt;&lt;div&gt;		nowiy = new numbers;&lt;/div&gt;&lt;div&gt;&lt;span style=&quot;&quot;&gt;		&lt;/span&gt;first-&amp;gt;next = nowiy;&lt;/div&gt;" style="whiteSpace=wrap;html=1;" vertex="1" parent="1">
          <mxGeometry x="441.25" y="1120" width="200" height="50" as="geometry" />
        </mxCell>
        <mxCell id="XoFY7Ahva4gUg5IXjVFd-60" style="edgeStyle=orthogonalEdgeStyle;rounded=0;orthogonalLoop=1;jettySize=auto;html=1;exitX=0.5;exitY=1;exitDx=0;exitDy=0;" edge="1" parent="1" source="XoFY7Ahva4gUg5IXjVFd-54">
          <mxGeometry relative="1" as="geometry">
            <mxPoint x="541" y="1310" as="targetPoint" />
          </mxGeometry>
        </mxCell>
        <mxCell id="XoFY7Ahva4gUg5IXjVFd-54" value="nowiy-&amp;gt;num[y] = a[y];" style="whiteSpace=wrap;html=1;" vertex="1" parent="1">
          <mxGeometry x="441.25" y="1230" width="200" height="40" as="geometry" />
        </mxCell>
        <mxCell id="XoFY7Ahva4gUg5IXjVFd-56" value="конец" style="rounded=1;whiteSpace=wrap;html=1;arcSize=50;" vertex="1" parent="1">
          <mxGeometry x="441.25" y="1330" width="200" height="60" as="geometry" />
        </mxCell>
        <mxCell id="XoFY7Ahva4gUg5IXjVFd-61" value="" style="edgeStyle=orthogonalEdgeStyle;rounded=0;orthogonalLoop=1;jettySize=auto;html=1;" edge="1" parent="1" source="XoFY7Ahva4gUg5IXjVFd-62" target="XoFY7Ahva4gUg5IXjVFd-63">
          <mxGeometry relative="1" as="geometry" />
        </mxCell>
        <mxCell id="XoFY7Ahva4gUg5IXjVFd-62" value="начало" style="rounded=1;whiteSpace=wrap;html=1;arcSize=50;" vertex="1" parent="1">
          <mxGeometry x="840" y="10" width="200" height="60" as="geometry" />
        </mxCell>
        <mxCell id="XoFY7Ahva4gUg5IXjVFd-66" value="" style="edgeStyle=orthogonalEdgeStyle;rounded=0;orthogonalLoop=1;jettySize=auto;html=1;" edge="1" parent="1" source="XoFY7Ahva4gUg5IXjVFd-63" target="XoFY7Ahva4gUg5IXjVFd-65">
          <mxGeometry relative="1" as="geometry" />
        </mxCell>
        <mxCell id="XoFY7Ahva4gUg5IXjVFd-63" value="&lt;div&gt;int u = 0;&lt;/div&gt;&lt;div&gt;	numbers* buff;&lt;/div&gt;&lt;div&gt;&lt;span style=&quot;&quot;&gt;	&lt;/span&gt;numbers* h = g;&lt;/div&gt;" style="whiteSpace=wrap;html=1;" vertex="1" parent="1">
          <mxGeometry x="840" y="100" width="200" height="60" as="geometry" />
        </mxCell>
        <mxCell id="XoFY7Ahva4gUg5IXjVFd-64" value="circle(numbers* g, int ocher, int kolv)" style="strokeWidth=2;html=1;shape=mxgraph.flowchart.annotation_2;align=left;labelPosition=right;pointerEvents=1;" vertex="1" parent="1">
          <mxGeometry x="1040" y="-10" width="50" height="100" as="geometry" />
        </mxCell>
        <mxCell id="XoFY7Ahva4gUg5IXjVFd-69" value="" style="edgeStyle=orthogonalEdgeStyle;rounded=0;orthogonalLoop=1;jettySize=auto;html=1;" edge="1" parent="1" source="XoFY7Ahva4gUg5IXjVFd-65" target="XoFY7Ahva4gUg5IXjVFd-68">
          <mxGeometry relative="1" as="geometry" />
        </mxCell>
        <mxCell id="XoFY7Ahva4gUg5IXjVFd-83" style="edgeStyle=orthogonalEdgeStyle;rounded=0;orthogonalLoop=1;jettySize=auto;html=1;exitX=1;exitY=0.5;exitDx=0;exitDy=0;entryX=0.5;entryY=0;entryDx=0;entryDy=0;" edge="1" parent="1" source="XoFY7Ahva4gUg5IXjVFd-65" target="XoFY7Ahva4gUg5IXjVFd-81">
          <mxGeometry relative="1" as="geometry">
            <mxPoint x="1070" y="780" as="targetPoint" />
            <Array as="points">
              <mxPoint x="1090" y="240" />
              <mxPoint x="1090" y="780" />
              <mxPoint x="940" y="780" />
            </Array>
          </mxGeometry>
        </mxCell>
        <mxCell id="XoFY7Ahva4gUg5IXjVFd-65" value="h-&amp;gt;next != h" style="rhombus;whiteSpace=wrap;html=1;" vertex="1" parent="1">
          <mxGeometry x="840" y="200" width="200" height="80" as="geometry" />
        </mxCell>
        <mxCell id="XoFY7Ahva4gUg5IXjVFd-67" value="Нет" style="text;html=1;align=center;verticalAlign=middle;resizable=0;points=[];autosize=1;strokeColor=none;fillColor=none;" vertex="1" parent="1">
          <mxGeometry x="630" y="820" width="40" height="30" as="geometry" />
        </mxCell>
        <mxCell id="XoFY7Ahva4gUg5IXjVFd-71" value="" style="edgeStyle=orthogonalEdgeStyle;rounded=0;orthogonalLoop=1;jettySize=auto;html=1;" edge="1" parent="1" source="XoFY7Ahva4gUg5IXjVFd-68" target="XoFY7Ahva4gUg5IXjVFd-70">
          <mxGeometry relative="1" as="geometry" />
        </mxCell>
        <mxCell id="XoFY7Ahva4gUg5IXjVFd-75" style="edgeStyle=orthogonalEdgeStyle;rounded=0;orthogonalLoop=1;jettySize=auto;html=1;exitX=1;exitY=0.5;exitDx=0;exitDy=0;entryX=0.5;entryY=0;entryDx=0;entryDy=0;" edge="1" parent="1" source="XoFY7Ahva4gUg5IXjVFd-68" target="XoFY7Ahva4gUg5IXjVFd-74">
          <mxGeometry relative="1" as="geometry">
            <Array as="points">
              <mxPoint x="1060" y="360" />
              <mxPoint x="1060" y="520" />
              <mxPoint x="940" y="520" />
            </Array>
          </mxGeometry>
        </mxCell>
        <mxCell id="XoFY7Ahva4gUg5IXjVFd-68" value="int i = 0; i &amp;lt; ocher - 2; i++" style="shape=hexagon;perimeter=hexagonPerimeter2;whiteSpace=wrap;html=1;fixedSize=1;" vertex="1" parent="1">
          <mxGeometry x="840" y="320" width="200" height="80" as="geometry" />
        </mxCell>
        <mxCell id="XoFY7Ahva4gUg5IXjVFd-73" style="edgeStyle=orthogonalEdgeStyle;rounded=0;orthogonalLoop=1;jettySize=auto;html=1;exitX=0.5;exitY=1;exitDx=0;exitDy=0;" edge="1" parent="1" source="XoFY7Ahva4gUg5IXjVFd-70">
          <mxGeometry relative="1" as="geometry">
            <mxPoint x="940" y="300" as="targetPoint" />
            <Array as="points">
              <mxPoint x="940" y="500" />
              <mxPoint x="820" y="500" />
              <mxPoint x="820" y="300" />
            </Array>
          </mxGeometry>
        </mxCell>
        <mxCell id="XoFY7Ahva4gUg5IXjVFd-70" value="&lt;div&gt;int u = 0;&lt;/div&gt;&lt;div&gt;	numbers* buff;&lt;/div&gt;&lt;div&gt;&lt;span style=&quot;&quot;&gt;	&lt;/span&gt;numbers* h = g;&lt;/div&gt;" style="whiteSpace=wrap;html=1;" vertex="1" parent="1">
          <mxGeometry x="840" y="430" width="200" height="50" as="geometry" />
        </mxCell>
        <mxCell id="XoFY7Ahva4gUg5IXjVFd-72" value="Да" style="text;html=1;align=center;verticalAlign=middle;resizable=0;points=[];autosize=1;strokeColor=none;fillColor=none;" vertex="1" parent="1">
          <mxGeometry x="940" y="270" width="40" height="30" as="geometry" />
        </mxCell>
        <mxCell id="XoFY7Ahva4gUg5IXjVFd-77" value="" style="edgeStyle=orthogonalEdgeStyle;rounded=0;orthogonalLoop=1;jettySize=auto;html=1;" edge="1" parent="1" source="XoFY7Ahva4gUg5IXjVFd-74" target="XoFY7Ahva4gUg5IXjVFd-76">
          <mxGeometry relative="1" as="geometry" />
        </mxCell>
        <mxCell id="XoFY7Ahva4gUg5IXjVFd-74" value="buff = h-&amp;gt;next;" style="whiteSpace=wrap;html=1;" vertex="1" parent="1">
          <mxGeometry x="840" y="540" width="200" height="40" as="geometry" />
        </mxCell>
        <mxCell id="XoFY7Ahva4gUg5IXjVFd-79" value="" style="edgeStyle=orthogonalEdgeStyle;rounded=0;orthogonalLoop=1;jettySize=auto;html=1;" edge="1" parent="1" source="XoFY7Ahva4gUg5IXjVFd-76" target="XoFY7Ahva4gUg5IXjVFd-78">
          <mxGeometry relative="1" as="geometry" />
        </mxCell>
        <mxCell id="XoFY7Ahva4gUg5IXjVFd-76" value="cout &amp;lt;&amp;lt; &quot;Deleted &quot; &amp;lt;&amp;lt; buff-&amp;gt;num &lt;br&gt;&amp;lt;&amp;lt; endl;" style="shape=parallelogram;perimeter=parallelogramPerimeter;whiteSpace=wrap;html=1;fixedSize=1;" vertex="1" parent="1">
          <mxGeometry x="840" y="610" width="200" height="50" as="geometry" />
        </mxCell>
        <mxCell id="XoFY7Ahva4gUg5IXjVFd-84" style="edgeStyle=orthogonalEdgeStyle;rounded=0;orthogonalLoop=1;jettySize=auto;html=1;exitX=0.5;exitY=1;exitDx=0;exitDy=0;" edge="1" parent="1" source="XoFY7Ahva4gUg5IXjVFd-78">
          <mxGeometry relative="1" as="geometry">
            <mxPoint x="940" y="177" as="targetPoint" />
            <Array as="points">
              <mxPoint x="940" y="760" />
              <mxPoint x="790" y="760" />
              <mxPoint x="790" y="177" />
            </Array>
          </mxGeometry>
        </mxCell>
        <mxCell id="XoFY7Ahva4gUg5IXjVFd-78" value="&lt;div&gt;h-&amp;gt;next = h-&amp;gt;next-&amp;gt;next;&lt;/div&gt;&lt;div&gt;		h = h-&amp;gt;next;&lt;/div&gt;&lt;div&gt;&lt;span style=&quot;&quot;&gt;		&lt;/span&gt;delete buff;&lt;/div&gt;" style="whiteSpace=wrap;html=1;" vertex="1" parent="1">
          <mxGeometry x="840" y="690" width="200" height="50" as="geometry" />
        </mxCell>
        <mxCell id="XoFY7Ahva4gUg5IXjVFd-81" value="конец" style="rounded=1;whiteSpace=wrap;html=1;arcSize=50;" vertex="1" parent="1">
          <mxGeometry x="840" y="800" width="200" height="60" as="geometry" />
        </mxCell>
        <mxCell id="XoFY7Ahva4gUg5IXjVFd-86" value="Нет" style="text;html=1;align=center;verticalAlign=middle;resizable=0;points=[];autosize=1;strokeColor=none;fillColor=none;" vertex="1" parent="1">
          <mxGeometry x="1030" y="205" width="40" height="30" as="geometry" />
        </mxCell>
      </root>
    </mxGraphModel>
  </diagram>
</mxfile>
